<svg width="182" height="32" viewBox="0 0 182 32" fill="none" xmlns="http://www.w3.org/2000/svg">
<path d="M141.5 28C141.5 29.6569 140.156 31 138.5 31H138.02C136.363 31 135.02 29.6569 135.02 28V8.26001C135.02 6.60316 136.363 5.26001 138.02 5.26001H139.784C140.847 5.26001 141.83 5.82263 142.369 6.73895L150.486 20.5374C150.494 20.5514 150.509 20.56 150.526 20.56V20.56C150.551 20.56 150.572 20.5395 150.572 20.5142V8.26001C150.572 6.60316 151.915 5.26001 153.572 5.26001H154.052C155.708 5.26001 157.052 6.60316 157.052 8.26001V28C157.052 29.6569 155.708 31 154.052 31H152.287C151.224 31 150.241 30.4374 149.702 29.5211L141.585 15.7226C141.577 15.7086 141.562 15.7 141.545 15.7V15.7C141.52 15.7 141.5 15.7205 141.5 15.7458V28Z" fill="#292929"/>
<path d="M130.707 27.76C130.707 29.5494 129.256 31 127.467 31V31C125.677 31 124.227 29.5494 124.227 27.76V8.50001C124.227 6.71061 125.677 5.26001 127.467 5.26001V5.26001C129.256 5.26001 130.707 6.71061 130.707 8.50001V27.76Z" fill="#292929"/>
<path d="M103.719 28.885C103.33 30.1424 102.168 31 100.852 31H100.469C98.3679 31 96.9177 28.8967 97.6646 26.9333L105.174 7.19333C105.617 6.02938 106.733 5.26001 107.978 5.26001H110.362C111.605 5.26001 112.719 6.02612 113.164 7.18649L120.729 26.9265C121.481 28.891 120.031 31 117.927 31H117.411C116.095 31 114.933 30.1424 114.545 28.885L114.195 27.7511C113.806 26.4936 112.644 25.636 111.328 25.636H106.935C105.619 25.636 104.457 26.4936 104.069 27.751L103.719 28.885ZM109.15 11.2C109.128 11.2 109.109 11.214 109.103 11.2344L107.063 17.8819C106.633 19.2847 107.682 20.704 109.15 20.704V20.704C110.617 20.704 111.666 19.2847 111.236 17.8819L109.196 11.2344C109.19 11.214 109.171 11.2 109.15 11.2V11.2Z" fill="#292929"/>
<path d="M85.6919 31.5761C80.1751 31.5761 75.7704 29.2793 74.36 25.2009C73.8185 23.6351 75.2271 22.2521 76.8839 22.2521H77.4359C79.0928 22.2521 80.2762 23.8138 81.433 25C82.3671 25.9578 83.8779 26.3561 85.6199 26.3561C88.0319 26.3561 89.2559 25.3841 89.2559 24.0521C89.2559 21.8561 86.6999 21.2801 83.1359 20.2001C78.6719 18.8321 74.6759 17.1041 74.6759 12.4961C74.6759 6.88008 79.0679 4.68408 84.6119 4.68408C89.3602 4.68408 93.3001 6.66025 94.8353 10.0628C95.5334 11.61 94.1121 13.0721 92.4147 13.0721H91.5631C90.0731 13.0721 88.9058 11.7901 87.7494 10.8505C86.9971 10.2393 85.9315 9.90408 84.6119 9.90408C82.6679 9.90408 81.2999 10.5521 81.2999 12.0281C81.2999 13.7561 82.7399 14.3321 86.0159 15.3041C90.8759 16.7441 95.8799 18.1121 95.8799 23.4401C95.8799 28.3721 92.1359 31.5761 85.6919 31.5761Z" fill="#292929"/>
<path d="M62.0318 31.5761C56.633 31.5761 52.2993 29.3766 50.7945 25.4603C50.1455 23.7714 51.6905 22.2521 53.4998 22.2521V22.2521C55.3091 22.2521 56.6094 24.0007 57.9733 25.1894C58.9155 26.0106 60.3373 26.3561 61.9598 26.3561C64.3718 26.3561 65.5958 25.3841 65.5958 24.0521C65.5958 21.8561 63.0398 21.2801 59.4758 20.2001C55.0118 18.8321 51.0158 17.1041 51.0158 12.4961C51.0158 6.88008 55.4078 4.68408 60.9518 4.68408C65.5028 4.68408 69.3112 6.49947 70.9715 9.64615C71.8819 11.3716 70.2416 13.0721 68.2907 13.0721V13.0721C66.578 13.0721 65.2151 11.5511 63.7755 10.6233C63.0516 10.1568 62.0974 9.90408 60.9518 9.90408C59.0078 9.90408 57.6398 10.5521 57.6398 12.0281C57.6398 13.7561 59.0798 14.3321 62.3558 15.3041C67.2158 16.7441 72.2198 18.1121 72.2198 23.4401C72.2198 28.3721 68.4758 31.5761 62.0318 31.5761Z" fill="#292929"/>
<path d="M36.7943 31.576C29.0183 31.576 26.0303 28.12 26.0303 21.712V8.26001C26.0303 6.60316 27.3734 5.26001 29.0303 5.26001H29.5103C31.1671 5.26001 32.5103 6.60316 32.5103 8.26001V21.712C32.5103 25.06 33.9503 26.284 36.7943 26.284C39.6383 26.284 41.0783 25.06 41.0783 21.712V8.26001C41.0783 6.60316 42.4214 5.26001 44.0783 5.26001H44.5583C46.2151 5.26001 47.5583 6.60316 47.5583 8.26001V21.712C47.5583 28.12 44.5703 31.576 36.7943 31.576Z" fill="#292929"/>
<path d="M6.64016 28C6.64016 29.6569 5.29701 31 3.64016 31H3.16016C1.5033 31 0.160156 29.6569 0.160156 28V8.26001C0.160156 6.60316 1.5033 5.26001 3.16016 5.26001H3.64016C5.29701 5.26001 6.64016 6.60316 6.64016 8.26001V13C6.64016 14.6569 7.9833 16 9.64016 16H12.4602C14.117 16 15.4602 14.6569 15.4602 13V8.26001C15.4602 6.60316 16.8033 5.26001 18.4602 5.26001H18.9402C20.597 5.26001 21.9402 6.60316 21.9402 8.26001V28C21.9402 29.6569 20.597 31 18.9402 31H18.4602C16.8033 31 15.4602 29.6569 15.4602 28V23C15.4602 21.3431 14.117 20 12.4602 20H9.64015C7.9833 20 6.64016 21.3431 6.64016 23V28Z" fill="#292929"/>

</svg>
