<svg width="150" height="32" viewBox="0 0 202 34" fill="none" xmlns="http://www.w3.org/2000/svg">
<path d="M181.977 29.6024C181.977 31.2592 180.634 32.6024 178.977 32.6024H173.634V0.713623H180.295C181.34 0.713623 182.309 1.25733 182.854 2.14887L193.547 19.64C193.558 19.6577 193.577 19.6685 193.598 19.6685V19.6685C193.631 19.6685 193.657 19.6419 193.657 19.6091V3.71362C193.657 2.05677 195 0.713623 196.657 0.713623H202V32.6024H195.339C194.294 32.6024 193.325 32.0586 192.78 31.1671L182.07 13.6475V13.6475C182.018 13.6475 181.977 13.689 181.977 13.7402V29.6024Z" fill="#292929"/>
<path d="M168.08 32.6024H159.737V0.713623H168.08V32.6024Z" fill="#292929"/>
<path d="M132.614 30.8052C132.216 32.0467 131.061 32.8887 129.758 32.8887H123L135.607 1H143.997L156.697 32.8887H149.754C148.45 32.8887 147.296 32.0467 146.897 30.8052L146.102 28.3269C145.704 27.0854 144.549 26.2434 143.246 26.2434H136.266C134.962 26.2434 133.808 27.0854 133.409 28.3269L132.614 30.8052ZM139.848 7.78638C139.486 7.78638 139.167 8.02837 139.07 8.37807L135.111 22.6209C134.934 23.2582 135.413 23.8887 136.074 23.8887H143.341C143.994 23.8887 144.472 23.2717 144.309 22.6388L140.631 8.39249C140.539 8.03568 140.217 7.78638 139.848 7.78638V7.78638Z" fill="#292929"/>
<path d="M110.124 33.3159C101.456 33.3159 94.9209 29.079 94.9209 21.7646H103.406C100.289 25 106.277 26.849 110.031 26.849C113.137 26.849 114.713 25.6448 114.713 23.9946C114.713 21.274 111.422 20.5604 106.833 19.2224C101.086 17.5276 95.9406 15.3869 95.9406 9.67812C95.9406 2.72058 101.595 0 108.733 0C116.474 0 122.546 3.92477 122.778 10.3917H114.342C116.917 7.5 111.932 6.46694 108.733 6.46694C106.23 6.46694 104.469 7.26974 104.469 9.09832C104.469 11.2391 106.323 11.9527 110.541 13.1569C116.798 14.9409 123.241 16.6357 123.241 23.2364C123.241 29.3466 118.421 33.3159 110.124 33.3159Z" fill="#292929"/>
<path d="M78.6287 33.3159C70.2885 33.3159 64 29.079 64 21.7646H72.165C69.165 25 74.9269 26.849 78.5395 26.849C81.5277 26.849 83.044 25.6448 83.044 23.9946C83.044 21.274 79.8775 20.5604 75.4621 19.2224C69.9317 17.5276 64.9812 15.3869 64.9812 9.67812C64.9812 2.72058 70.4223 0 77.2907 0C84.7388 0 90.5814 3.92477 90.8044 10.3917H82.6872C85.165 7.5 80.3681 6.46694 77.2907 6.46694C74.8823 6.46694 73.1875 7.26974 73.1875 9.09832C73.1875 11.2391 74.9715 11.9527 79.0301 13.1569C85.051 14.9409 91.2504 16.6357 91.2504 23.2364C91.2504 29.3466 86.612 33.3159 78.6287 33.3159Z" fill="#292929"/>
<path d="M47.1664 33.3159C37.1547 33.3159 33.3076 29.0344 33.3076 21.0957V0.713623H38.6507C40.3076 0.713623 41.6507 2.05677 41.6507 3.71362V21.0957C41.6507 25.2434 43.5047 31.5 47.1664 31.5C50.8281 31.5 52.6821 25.2434 52.6821 21.0957V3.71362C52.6821 2.05677 54.0253 0.713623 55.6821 0.713623H61.0252V21.0957C61.0252 29.0344 57.1781 33.3159 47.1664 33.3159Z" fill="#292929"/>
<path d="M8.3431 29.6024C8.3431 31.2592 6.99995 32.6024 5.3431 32.6024H0V0.713623H5.3431C6.99995 0.713623 8.3431 2.05677 8.3431 3.71362V11.0192C8.3431 12.676 9.68625 14.0192 11.3431 14.0192H17.699C18.8036 14.0192 19.699 13.1237 19.699 12.0192V3.71362C19.699 2.05677 21.0421 0.713623 22.699 0.713623H28.0421V32.6024H22.699C21.0421 32.6024 19.699 31.2592 19.699 29.6024V21.9747C19.699 20.3178 18.3558 18.9747 16.699 18.9747H10.3431C9.23853 18.9747 8.3431 19.8701 8.3431 20.9747V29.6024Z" fill="#292929"/>
</svg>
