<svg width="415" height="421" viewBox="0 0 415 421" fill="none" xmlns="http://www.w3.org/2000/svg">
<path d="M206.8 421C179.95 421 158.433 418.438 139.323 412.981C63.709 391.418 5.25349 313.321 0.346631 227.238C-4.52975 141.82 42.4664 57.1681 114.667 21.4305C125.974 15.8402 140.207 10.5828 154.836 9.85073C209.025 -6.52071 265.5 -2.42786 312.039 21.6967C367.721 50.5464 407.738 109.444 414.016 171.735C416.332 194.695 414.565 219.784 408.652 248.368C400.484 287.733 378.144 359.141 320.054 395.079C283.329 417.806 239.838 420.734 210.275 421C209.117 421 207.928 421 206.8 421ZM137.312 26.4884C130.973 28.4183 124.999 30.9473 119.696 33.576C53.1031 66.5518 7.99643 147.677 12.5071 226.439C17.1092 306.932 71.7246 379.972 142.402 400.136C161.267 405.527 182.815 407.923 210.183 407.69C238.375 407.457 279.763 404.695 314.02 383.499C368.026 350.057 389.025 282.641 396.735 245.406C402.343 218.287 404.05 194.662 401.886 173.166C396.065 115.367 358.76 60.5955 306.796 33.709C270.589 14.9751 227.891 9.08537 185.223 16.2728C185.863 16.6056 186.472 16.9716 187.082 17.3377C190.038 19.1013 191.135 23.1275 189.52 26.3552C187.904 29.5829 184.217 30.7808 181.26 29.0172C173.58 24.4585 165.168 22.8614 156.726 23.061C152.215 24.4586 147.735 25.9892 143.286 27.6862C141.152 28.4848 138.897 27.9192 137.312 26.4551V26.4884Z" fill="#292929"/>
</svg>
