<svg width="57" height="73" viewBox="0 0 57 73" fill="none" xmlns="http://www.w3.org/2000/svg">
<path d="M11.4973 66.4127C10.9045 66.7866 10.292 67.1231 9.64355 67.4492C8.83371 67.8438 7.90269 67.7504 7.15453 67.2263C6.40637 66.7022 5.96209 65.8038 5.9501 64.8319C5.7868 44.5321 4.10622 24.0937 0.980919 4.08517C0.729847 2.51703 1.70345 1.02304 3.13423 0.767955C3.3789 0.713223 3.62064 0.710164 3.85261 0.74645C4.70675 0.406878 5.69985 0.560652 6.4454 1.25244C16.824 10.8254 29.1746 17.8596 41.1111 24.6568L55.142 32.6564C56.0551 33.1761 56.6077 34.222 56.5518 35.3529C56.4958 36.4839 55.8598 37.4662 54.8916 37.8777C42.7724 43.1318 30.2375 48.5486 20.5338 58.1725C19.8849 58.8142 19.2378 59.488 18.6021 60.1547C16.4315 62.4038 14.2056 64.7208 11.5039 66.4251L11.4973 66.4127ZM7.0742 9.17298C9.44038 25.8753 10.8002 42.8305 11.1362 59.7177C12.4313 58.602 13.6752 57.3027 14.9646 55.9747C15.6393 55.2669 16.3092 54.5788 16.9857 53.903C25.8796 45.1053 37.0784 39.5187 47.6081 34.8521L38.648 29.7466C27.9402 23.6351 16.9167 17.3576 7.04966 9.15533L7.0742 9.17298Z" fill="#fff"/>
<path d="M44.3798 72.3486C43.1372 73.1324 41.5502 72.6892 40.8102 71.3464L33.4734 58.095C29.907 51.6623 26.2286 45.0179 22.2776 38.778C21.4513 37.4731 21.748 35.6757 22.9493 34.7851C24.1441 33.882 25.7894 34.2055 26.6044 35.5176C30.6457 41.8997 34.3633 48.6188 37.9693 55.1262L45.3061 68.3776C46.0526 69.7328 45.6662 71.5039 44.414 72.327L44.3684 72.3558L44.3798 72.3486Z" fill="#fff"/>
<path d="M13.3029 63.099C12.4821 63.6168 11.4797 63.6182 10.6548 63.0927C9.78079 62.5318 9.28684 61.4821 9.36252 60.3884C10.5526 44.2319 9.22545 28.0861 5.42995 12.4182C5.10129 11.0484 5.74215 9.61484 6.91373 9.04183C8.10328 8.47407 9.49111 8.94337 10.1929 10.1276C13.3966 15.6437 16.9668 20.9617 20.8084 25.9592L21.9063 27.375C24.8058 31.1074 27.8118 34.9552 29.5319 39.7635C29.8951 40.7961 29.694 41.9688 29.0018 42.7873C28.8247 42.9986 28.6542 43.2224 28.4836 43.4462C29.028 44.4475 28.9825 45.771 28.2565 46.727C23.9238 52.5645 19.4302 58.5865 13.4445 62.9931C13.3875 63.0291 13.3419 63.0578 13.2849 63.0938L13.3029 63.099Z" fill="#fff"/>
<path d="M47.1407 37.6204C46.0805 38.2891 44.8349 38.6931 43.49 38.7943L37.27 41.7219C36.7469 41.9688 35.6371 42.4863 34.3509 42.1522C34.0339 42.0699 33.7559 41.9464 33.5007 41.8086C33.4617 41.8498 33.4178 41.9106 33.3788 41.9518C33.5929 42.846 33.3992 43.8315 32.803 44.5729C32.4602 44.9883 32.0927 45.3861 31.7122 45.759L30.7547 46.7946C30.3255 47.248 29.7861 47.5217 29.2248 47.6102C28.9903 47.7415 28.7377 47.8676 28.4966 47.9866C27.6688 48.3759 26.7085 48.2844 25.97 47.721C25.2201 47.1648 24.7968 46.2199 24.8255 45.2389C24.8255 45.2389 24.8255 45.2389 24.819 45.2264C23.7148 45.0929 22.6864 44.7289 21.7896 44.1823C20.596 43.7068 19.725 42.6624 19.4095 41.3175C19.2449 40.5747 19.3513 39.827 19.6704 39.194C19.1286 37.5935 19.5423 35.6724 20.695 34.4307C20.7616 34.3555 20.8348 34.2927 20.9014 34.2175C20.8654 33.7754 20.9307 33.3524 21.0745 32.9628L19.7282 32.2848C18.8366 31.8345 18.2598 30.8868 18.2131 29.8205C18.1916 29.3195 18.26 28.8448 18.4362 28.4017C15.7529 24.8483 12.8727 21.4689 9.83165 18.2741C8.8054 17.1949 8.74276 15.4082 9.71122 14.2495C10.6797 13.0908 12.3135 12.9898 13.3902 14.0206C15.6926 16.2205 18.5086 17.7811 21.488 19.4211C23.7197 20.6529 26.0364 21.9307 28.2059 23.5338C28.5809 23.8119 28.9444 24.0972 29.3145 24.395C29.7307 24.3483 30.1407 24.4051 30.5511 24.5778C35.3951 26.6686 40.1427 29.1523 44.6908 31.9776L46.0304 31.3484C47.1401 30.8309 48.4281 31.1972 49.1636 32.2439C49.8991 33.2907 49.8787 34.7478 49.122 35.7896C48.5732 36.5342 47.9111 37.1511 47.1587 37.6257L47.1407 37.6204Z" fill="#fff"/>
</svg>
