<svg width="96" height="96" viewBox="0 0 96 96" fill="none" xmlns="http://www.w3.org/2000/svg">
<rect width="96" height="96" fill="#EDE9DE"/>
<path d="M48 40C43.5817 40 40 43.5817 40 48C40 52.4183 43.5817 56 48 56C52.4183 56 56 52.4183 56 48C56 43.5817 52.4183 40 48 40Z" fill="black"/>
<path fill-rule="evenodd" clip-rule="evenodd" d="M12 48C12 28.1178 28.1178 12 48 12C67.8823 12 84 28.1178 84 48C84 67.8823 67.8823 84 48 84C28.1178 84 12 67.8823 12 48ZM28 48C28 36.9543 36.9543 28 48 28C59.0457 28 68 36.9543 68 48C68 59.0457 59.0457 68 48 68C36.9543 68 28 59.0457 28 48Z" fill="black"/>
</svg>
