<svg width="72" height="72" viewBox="0 0 72 72" fill="none" xmlns="http://www.w3.org/2000/svg">
<path d="M36 28C31.5817 28 28 31.5817 28 36C28 40.4183 31.5817 44 36 44C40.4183 44 44 40.4183 44 36C44 31.5817 40.4183 28 36 28Z" fill="black"/>
<path fill-rule="evenodd" clip-rule="evenodd" d="M0 36C0 16.1178 16.1178 0 36 0C55.8823 0 72 16.1178 72 36C72 55.8823 55.8823 72 36 72C16.1178 72 0 55.8823 0 36ZM16 36C16 24.9543 24.9543 16 36 16C47.0457 16 56 24.9543 56 36C56 47.0457 47.0457 56 36 56C24.9543 56 16 47.0457 16 36Z" fill="black"/>
</svg>
